<?xml version="1.0" encoding="UTF-8"?>
<svg id="Capa_1" xmlns="http://www.w3.org/2000/svg" width="260" height="60" version="1.1" viewBox="0 0 260 60">
  <!-- Generator: Adobe Illustrator 29.1.0, SVG Export Plug-In . SVG Version: 2.1.0 Build 142)  -->
  <defs>
    <style>
      .st0 {
        fill: none;
      }

      .st1 {
        fill: #f8d608;
      }

      .st2 {
        fill: #0b0b0b;
      }
    </style>
  </defs>
  <rect class="st0" x=".1850227" width="259.6299546" height="60"/>
  <rect class="st1" x=".1850227" y="2.3776112" width="6.4560763" height="55.2447776"/>
  <g>
    <g>
      <path class="st2" d="M16.3818935,41.3557485h3.965909c2.866705,0,4.2246372,1.2717508,4.2246372,3.966001v.5387948c0,2.6942501-1.3579322,3.965909-4.2246372,3.965909h-2.5864544v6.6171144h-1.3794546v-15.0878192ZM20.3478025,48.6194535c2.0045228,0,2.8451826-.7759087,2.8451826-2.7589092v-.5387948c0-1.9830005-.8406598-2.7589092-2.8451826-2.7589092h-2.5864544v6.0566132h2.5864544Z"/>
      <path class="st2" d="M33.941841,49.438499v1.7890233h-6.4015229v1.6380908c0,1.6812275.9052268,2.6295911,2.5434097,2.6295911,1.6812275,0,2.5434097-.9915002,2.5434097-2.4787506h1.3147036c-.1077958,2.3278181-1.465636,3.6426137-3.8581132,3.6426137-2.500273,0-3.8797276-1.400977-3.8797276-3.9012499v-3.3193184c0-2.5217953,1.400977-3.9227723,3.8797276-3.9227723,2.500181,0,3.8581132,1.400977,3.8581132,3.9227723ZM32.6271374,50.1282263v-.8405678c0-1.7027499-.8837965-2.6080687-2.5434097-2.6080687-1.6381828,0-2.5434097.9268412-2.5434097,2.6080687v.8405678h5.0868193Z"/>
      <path class="st2" d="M41.1515562,45.6665672v1.3147955c-.3017729-.1077958-.5819315-.1508405-.9268412-.1508405-1.9182494,0-2.866705,1.2931812-2.866705,3.9443866v5.6686589h-1.3363179v-10.7123415h1.1424327l.0430447,2.0907043c.4742278-1.5734318,1.4872504-2.3062038,2.9960231-2.3062038.3449096,0,.6465906.0215224.9483635.1508405Z"/>
      <path class="st2" d="M42.4661678,53.6631362v-.366432h1.2931812v.366432c0,1.2069998.8621821,1.832068,2.3925692,1.832068s2.4356139-.6035459,2.4356139-2.0045228c0-1.2716588-1.1639551-1.5303871-2.6727278-1.8536824-1.7027499-.36634-3.2761817-.9267492-3.2761817-3.0605902,0-1.9183414,1.400977-3.0606821,3.5348179-3.0606821,2.1123186,0,3.5349099,1.1208184,3.5349099,2.931272v.1940692h-1.2716588v-.1724548c0-1.1854774-.8406598-1.7890233-2.2632511-1.7890233-1.3147955,0-2.2415447.6035459-2.2415447,1.8968191,0,1.2500445,1.1638631,1.5302951,2.6511134,1.8751127,1.6165685.366432,3.3192264.8621821,3.3192264,3.0606821,0,2.0045228-1.3578403,3.1468636-3.664136,3.1468636-2.4139996,0-3.7719318-1.1207264-3.7719318-2.9959311Z"/>
      <path class="st2" d="M51.706067,52.736295v-3.297796c0-2.5217953,1.400977-3.9227723,3.8582052-3.9227723,2.4786586,0,3.8797276,1.400977,3.8797276,3.9227723v3.297796c0,2.5217953-1.4010689,3.9227723-3.8797276,3.9227723-2.4572282,0-3.8582052-1.400977-3.8582052-3.9227723ZM58.1075899,52.8871355v-3.599477c0-1.6597052-.9052268-2.6080687-2.5433177-2.6080687-1.6165685,0-2.5218873.9483635-2.5218873,2.6080687v3.599477c0,1.6597052.9053188,2.6080687,2.5218873,2.6080687,1.6380908,0,2.5433177-.9483635,2.5433177-2.6080687Z"/>
      <path class="st2" d="M69.1948252,49.0505446v7.3930231h-1.3363179v-7.1990459c0-1.7242723-.6898193-2.564932-2.1123186-2.564932-1.7889313,0-2.8235683,1.2286141-2.8235683,3.3193184v6.4446596h-1.3363179v-10.7123415h1.1423407l.0430447,1.8752047c.5388868-1.3579322,1.7028419-2.0907043,3.3194104-2.0907043,2.0475676,0,3.1037269,1.2069998,3.1037269,3.5348179Z"/>
      <path class="st2" d="M77.7710264,56.4435677c-.1293181-.3232953-.1939772-.9915002-.2154995-1.8752047-.5605012,1.3363179-1.7458866,2.0907043-3.4055918,2.0907043-1.9398638,0-3.0822045-1.0560673-3.0822045-2.8235683,0-1.6811356.8621821-2.6295911,3.2761817-3.233045,2.6511134-.6897273,3.0606821-.9268412,3.0606821-1.8536824-.0216143-1.3363179-.8405678-2.0691819-2.2847734-2.0691819-1.5733398,0-2.3924772.9053188-2.3924772,2.1123186h-1.2501365c0-1.9830005,1.3794546-3.2761817,3.6857504-3.2761817,2.3925692,0,3.5779546,1.2716588,3.5779546,3.4701589v4.6125916c0,1.2931812.064751,2.2415447.2371139,2.8450906h-1.2069998ZM77.4045944,52.1758858v-1.5950461c-.3232953.3449096-1.0776817.6466826-2.7589092,1.0777736-1.5734318.4310911-2.2416367.9483635-2.2416367,2.133841,0,1.099204.7112497,1.7027499,2.0045228,1.7027499,1.832068,0,2.9960231-1.099296,2.9960231-3.3193184Z"/>
      <path class="st2" d="M81.0642236,41.3557485h1.3364099v15.0878192h-1.3364099v-15.0878192Z"/>
      <path class="st2" d="M89.5342845,41.3557485h1.3794546v15.0878192h-1.3794546v-15.0878192Z"/>
      <path class="st2" d="M100.9168545,49.0505446v7.3930231h-1.3363179v-7.1990459c0-1.7242723-.6897273-2.564932-2.1122266-2.564932-1.7890233,0-2.8236602,1.2286141-2.8236602,3.3193184v6.4446596h-1.3363179v-10.7123415h1.1424327l.0430447,1.8752047c.5387948-1.3579322,1.7027499-2.0907043,3.3193184-2.0907043,2.0476595,0,3.1037269,1.2069998,3.1037269,3.5348179Z"/>
      <path class="st2" d="M101.201244,59.7197494v-1.1638631c.3017729.1723628.6035459.2801586.9915002.2801586.7112497,0,.9915002-.3232953.9915002-1.2931812v-11.8116375h1.3363179v11.8331599c0,1.6380908-.6897273,2.4356139-2.1769777,2.4356139-.4309991,0-.8190454-.0862734-1.1423407-.2802506ZM103.2057668,41.3342262h1.3364099v2.3493405h-1.3364099v-2.3493405Z"/>
      <path class="st2" d="M114.3789996,45.7312262v10.7123415h-1.1423407l-.0430447-1.8752047c-.5388868,1.3579322-1.7028419,2.0907043-3.3194104,2.0907043-2.0475676,0-3.1037269-1.2069998-3.1037269-3.5348179v-7.3930231h1.3363179v7.1990459c0,1.7242723.6898193,2.564932,2.1123186,2.564932,1.7889313,0,2.8235683-1.2286141,2.8235683-3.3193184v-6.4446596h1.3363179Z"/>
      <path class="st2" d="M121.862343,45.6665672v1.3147955c-.301681-.1077958-.5819315-.1508405-.9267492-.1508405-1.9183414,0-2.866705,1.2931812-2.866705,3.9443866v5.6686589h-1.3364099v-10.7123415h1.1424327l.0431367,2.0907043c.4741358-1.5734318,1.4872504-2.3062038,2.9960231-2.3062038.3448177,0,.6465906.0215224.9482716.1508405Z"/>
      <path class="st2" d="M131.7813924,45.7312262l-3.8150685,12.0702738c-.4957501,1.5518174-1.2932732,2.1985-2.7373868,2.1985-.6250682,0-1.099204-.1077958-1.4225913-.3017729v-1.1854774c.4095687.2154995.8191374.3232953,1.2932732.3232953.8621821,0,1.3363179-.366432,1.6165685-1.2285221l.3232953-1.0561593-3.7504094-10.8201373h1.4225913l3.0175454,8.8802735,2.7589092-8.8802735h1.2932732Z"/>
      <path class="st2" d="M138.09609,41.3557485h1.3794546v13.8808194h5.9058647v1.2069998h-7.2853193v-15.0878192Z"/>
      <path class="st2" d="M153.6234621,56.4435677c-.1293181-.3232953-.1939772-.9915002-.2154995-1.8752047-.5604092,1.3363179-1.7458866,2.0907043-3.4055918,2.0907043-1.9397718,0-3.0821125-1.0560673-3.0821125-2.8235683,0-1.6811356.8620901-2.6295911,3.2761817-3.233045,2.6511134-.6897273,3.0605902-.9268412,3.0605902-1.8536824-.0215224-1.3363179-.8405678-2.0691819-2.2846814-2.0691819-1.5734318,0-2.3924772.9053188-2.3924772,2.1123186h-1.2501365c0-1.9830005,1.3794546-3.2761817,3.6856584-3.2761817,2.3925692,0,3.5780466,1.2716588,3.5780466,3.4701589v4.6125916c0,1.2931812.0646591,2.2415447.2371139,2.8450906h-1.2070918ZM153.2570301,52.1758858v-1.5950461c-.3232033.3449096-1.0775897.6466826-2.7589092,1.0777736-1.5733398.4310911-2.2416367.9483635-2.2416367,2.133841,0,1.099204.7113416,1.7027499,2.0045228,1.7027499,1.83216,0,2.9960231-1.099296,2.9960231-3.3193184Z"/>
      <path class="st2" d="M156.1149053,45.7312262h1.3364099l2.2631591,9.2897502,2.2200224-9.2897502h1.5087727l2.2200224,9.2897502,2.2416367-9.2897502h1.2501365l-2.6080687,10.7123415h-1.6596132l-2.1985-9.3328869-2.2200224,9.3328869h-1.7243642l-2.6295911-10.7123415Z"/>
      <path class="st2" d="M179.1257128,45.7312262l-3.8150685,12.0702738c-.4957501,1.5518174-1.2931812,2.1985-2.7373868,2.1985-.6249763,0-1.099204-.1077958-1.4224993-.3017729v-1.1854774c.4094767.2154995.8190454.3232953,1.2931812.3232953.8621821,0,1.3364099-.366432,1.6165685-1.2285221l.3233873-1.0561593-3.7504094-10.8201373h1.4224993l3.0175454,8.8802735,2.7589092-8.8802735h1.2932732Z"/>
      <path class="st2" d="M188.1285902,49.438499v1.7890233h-6.4015229v1.6380908c0,1.6812275.9052268,2.6295911,2.5433177,2.6295911,1.6812275,0,2.5434097-.9915002,2.5434097-2.4787506h1.3147955c-.1077958,2.3278181-1.465728,3.6426137-3.8582052,3.6426137-2.500273,0-3.8797276-1.400977-3.8797276-3.9012499v-3.3193184c0-2.5217953,1.400977-3.9227723,3.8797276-3.9227723,2.500273,0,3.8582052,1.400977,3.8582052,3.9227723ZM186.8137946,50.1282263v-.8405678c0-1.7027499-.8837965-2.6080687-2.5434097-2.6080687-1.6380908,0-2.5433177.9268412-2.5433177,2.6080687v.8405678h5.0867273Z"/>
      <path class="st2" d="M195.3382134,45.6665672v1.3147955c-.301681-.1077958-.5819315-.1508405-.9267492-.1508405-1.9183414,0-2.866705,1.2931812-2.866705,3.9443866v5.6686589h-1.3364099v-10.7123415h1.1424327l.0431367,2.0907043c.4741358-1.5734318,1.4872504-2.3062038,2.9960231-2.3062038.3448177,0,.6465906.0215224.9482716.1508405Z"/>
      <path class="st2" d="M196.6529169,53.6631362v-.366432h1.2931812v.366432c0,1.2069998.8621821,1.832068,2.3925692,1.832068s2.4356139-.6035459,2.4356139-2.0045228c0-1.2716588-1.1639551-1.5303871-2.6727278-1.8536824-1.7027499-.36634-3.2761817-.9267492-3.2761817-3.0605902,0-1.9183414,1.400977-3.0606821,3.5348179-3.0606821,2.1123186,0,3.5349099,1.1208184,3.5349099,2.931272v.1940692h-1.2716588v-.1724548c0-1.1854774-.8406598-1.7890233-2.2632511-1.7890233-1.3147955,0-2.2415447.6035459-2.2415447,1.8968191,0,1.2500445,1.1638631,1.5302951,2.6511134,1.8751127,1.6165685.366432,3.3192264.8621821,3.3192264,3.0606821,0,2.0045228-1.3578403,3.1468636-3.664136,3.1468636-2.4139996,0-3.7719318-1.1207264-3.7719318-2.9959311Z"/>
    </g>
    <g>
      <g>
        <path class="st2" d="M24.7875713,20.6629178l-2.4572282,3.8366828v9.3116405h-6.0353668V3.6346829h6.0353668v12.2861412l7.5441395-12.2861412h6.1215482l-7.0699118,11.2084595,7.1992299,18.9680986h-6.4663659l-4.8714118-13.1483233Z"/>
        <path class="st2" d="M52.0930096,28.3363754h-6.7681388l-.9915002,5.4748657h-5.7335939l6.2508664-30.1765582h8.1476854l6.2508664,30.1765582h-6.1646849l-.9915002-5.4748657ZM51.1446461,23.1631907l-2.4572282-13.493233-2.4141835,13.493233h4.8714118Z"/>
        <path class="st2" d="M61.309731,25.9653286v-1.3364099h5.6904572v1.3364099c0,1.8536824.9484555,3.1900922,3.1039108,3.1900922,1.8968191,0,3.1469555-1.1639551,3.1469555-3.1900922,0-2.5865464-1.0346369-3.2332289-5.129956-5.2162294-5.1731847-2.5003649-6.6819574-5.0869113-6.6819574-9.3116405,0-4.9144565,3.1038188-8.2338668,8.9235941-8.2338668s8.7080946,3.3194104,8.7080946,8.3200483v.8622741h-5.6904572v-.8191374c0-1.8968191-.8621821-3.2762737-2.9745007-3.2762737-1.8536824,0-2.931456,1.2069998-2.931456,3.0607741,0,2.3279101,1.1639551,3.0176374,5.2162294,4.9575932,5.3025028,2.5434097,6.595776,5.2162294,6.595776,9.52714,0,5.0869113-3.1900922,8.4063217-9.0961409,8.4063217-5.9059567,0-8.8805494-3.3194104-8.8805494-8.2770035Z"/>
        <path class="st2" d="M82.2432627,25.9653286v-1.3364099h5.6904572v1.3364099c0,1.8536824.9484555,3.1900922,3.1039108,3.1900922,1.8968191,0,3.1469555-1.1639551,3.1469555-3.1900922,0-2.5865464-1.0346369-3.2332289-5.129956-5.2162294-5.1731847-2.5003649-6.6819574-5.0869113-6.6819574-9.3116405,0-4.9144565,3.1038188-8.2338668,8.9235941-8.2338668s8.7080946,3.3194104,8.7080946,8.3200483v.8622741h-5.6904572v-.8191374c0-1.8968191-.8621821-3.2762737-2.9745007-3.2762737-1.8536824,0-2.931456,1.2069998-2.931456,3.0607741,0,2.3279101,1.1639551,3.0176374,5.2162294,4.9575932,5.3025028,2.5434097,6.595776,5.2162294,6.595776,9.52714,0,5.0869113-3.1900922,8.4063217-9.0961409,8.4063217-5.9059567,0-8.8805494-3.3194104-8.8805494-8.2770035Z"/>
      </g>
      <g>
        <path class="st2" d="M147.4511431,3.5562275h8.4925031l4.0092296,21.0373725,3.966001-21.0373725h8.492687v30.1765582h-5.6905492V11.2728219l-4.4832734,22.4599638h-5.0438666l-4.4833654-22.4599638v22.4599638h-5.2593661V3.5562275Z"/>
        <path class="st2" d="M177.1060139,25.4557821v-13.6225511c0-5.4748657,3.2333209-8.7080946,9.1392776-8.7080946s9.1390937,3.2332289,9.1390937,8.7080946v13.6225511c0,5.4748657-3.233137,8.7080946-9.1390937,8.7080946s-9.1392776-3.2332289-9.1392776-8.7080946ZM189.3491104,25.6713736v-14.0537341c0-2.0261372-1.0777736-3.233137-3.1038188-3.233137-2.0262292,0-3.1040028,1.2069998-3.1040028,3.233137v14.0537341c0,2.0261372,1.0777736,3.233137,3.1040028,3.233137,2.0260452,0,3.1038188-1.2069998,3.1038188-3.233137Z"/>
        <path class="st2" d="M199.4364757,25.8868732v-1.3364099h5.6905492v1.3364099c0,1.8536824.9484555,3.1900922,3.1038188,3.1900922,1.896911,0,3.1470475-1.1639551,3.1470475-3.1900922,0-2.5865464-1.0347289-3.2332289-5.130048-5.2162294-5.1730927-2.5003649-6.6818654-5.0869113-6.6818654-9.3116405,0-4.9144565,3.1038188-8.2338668,8.9235022-8.2338668,5.8198673,0,8.7080946,3.3194104,8.7080946,8.3200483v.8622741h-5.6903652v-.8191374c0-1.8968191-.8621821-3.2762737-2.9745007-3.2762737-1.8536824,0-2.931456,1.2069998-2.931456,3.0607741,0,2.3279101,1.1638631,3.0176374,5.2161374,4.9575932,5.3025948,2.5434097,6.595776,5.2162294,6.595776,9.52714,0,5.0869113-3.1900922,8.4063217-9.096049,8.4063217s-8.8806414-3.3194104-8.8806414-8.2770035Z"/>
        <path class="st2" d="M221.680664,3.5562275h16.424689v5.2593661h-10.3894141v6.9837304h8.2769116v5.2592741h-8.2769116v7.4148214h10.3894141v5.2593661h-16.424689V3.5562275Z"/>
        <path class="st2" d="M241.838287,25.8868732v-1.3364099h5.6905492v1.3364099c0,1.8536824.9484555,3.1900922,3.1038188,3.1900922,1.896911,0,3.1470475-1.1639551,3.1470475-3.1900922,0-2.5865464-1.0347289-3.2332289-5.130048-5.2162294-5.1730927-2.5003649-6.6818654-5.0869113-6.6818654-9.3116405,0-4.9144565,3.1038188-8.2338668,8.9235022-8.2338668,5.8198673,0,8.7080946,3.3194104,8.7080946,8.3200483v.8622741h-5.6903652v-.8191374c0-1.8968191-.8621821-3.2762737-2.9745007-3.2762737-1.8536824,0-2.931456,1.2069998-2.931456,3.0607741,0,2.3279101,1.1638631,3.0176374,5.2161374,4.9575932,5.3025948,2.5434097,6.595776,5.2162294,6.595776,9.52714,0,5.0869113-3.1900922,8.4063217-9.096049,8.4063217s-8.8806414-3.3194104-8.8806414-8.2770035Z"/>
      </g>
      <g>
        <path class="st2" d="M135.619881,21.9825143h-2.7215785l-1.6284621,1.4211312-9.5456214-10.9382286,1.6856481-1.4710396c1.672898-1.4599163,1.8461748-4.0086088.3862586-5.6815068-1.4599105-1.672898-4.008672-1.8461806-5.68157-.3862643-1.672898,1.4599105-1.8461403,4.0086375-.3862298,5.6815355l1.7160864,1.9664506.9315377,1.0674378,17.5328836,20.0907507h2.3750823l-7.8374622-8.9808664,3.1734274-2.7694002ZM119.0765948,9.4315285c-.8111297-.9294625-.714854-2.345558.2146085-3.1566877.9294682-.8111297,2.3455235-.7148252,3.1566532.214643.8111297.9294625.7148597,2.3454948-.2146028,3.1566245l-1.6856481,1.4710339-1.4710109-1.6856136Z"/>
        <path class="st2" d="M112.2708551,8.9626123h-1.7894487c-.0014889.4398403.095448,3.4101216,2.8484707,6.5647801l.8394928.9619645-2.2519898,1.9652779c-3.789482,3.3070166-4.1819604,9.080436-.874938,12.8699123,3.3070166,3.789482,9.0804016,4.1819891,12.8698835.8749725l2.2519898-1.9652779,3.0531229,3.4985392h2.3750765l-16.9143687-19.3820017c-2.4298539-2.7843405-2.4093433-5.2831591-2.4072911-5.3881669ZM124.9876965,28.8859727l-2.251984,1.9652721c-3.0460465,2.6582416-7.6867942,2.3426952-10.34503-.7033455-2.6582416-3.0460407-2.3427355-7.6867597.703311-10.3449955l2.2519898-1.9652779,9.6417133,11.0483467Z"/>
      </g>
    </g>
  </g>
</svg>